<svg xmlns="http://www.w3.org/2000/svg" viewBox="0 0 967.02 184.89"><defs><style>.cls-1{fill:#fff;}</style></defs><g id="Layer_2" data-name="Layer 2"><g id="Layer_1-2" data-name="Layer 1"><path class="cls-1" d="M87.19,184V157.51a.6.6,0,0,1,.16-.42.58.58,0,0,1,.43-.17h.69a.54.54,0,0,1,.41.16.61.61,0,0,1,.16.43v12.18l13.41-12.48a1.12,1.12,0,0,1,.79-.29h1.09c.21,0,.33.08.37.25a.4.4,0,0,1-.14.42L90.87,170.33,105,183.83a.3.3,0,0,1,.13.24.41.41,0,0,1,0,.17c-.06.18-.21.27-.46.27h-1.25a1.17,1.17,0,0,1-.86-.39L89,171v13c0,.34-.19.52-.57.52H87.7a.5.5,0,0,1-.37-.15A.51.51,0,0,1,87.19,184Z"/><path class="cls-1" d="M125.65,184V157.44a.49.49,0,0,1,.16-.37.53.53,0,0,1,.36-.15H142a.51.51,0,0,1,.52.52v.67a.5.5,0,0,1-.15.35.53.53,0,0,1-.37.15H127.49V169.5H140a.43.43,0,0,1,.35.16.46.46,0,0,1,.15.34v.67a.47.47,0,0,1-.16.37.46.46,0,0,1-.34.15H127.49v11.63H142a.53.53,0,0,1,.37.15.54.54,0,0,1,.15.38V184a.51.51,0,0,1-.15.37.49.49,0,0,1-.37.16H126.17a.5.5,0,0,1-.36-.16A.46.46,0,0,1,125.65,184Z"/><path class="cls-1" d="M164.56,184V157.44a.5.5,0,0,1,.17-.37.52.52,0,0,1,.35-.15h15.8a.49.49,0,0,1,.36.15.49.49,0,0,1,.16.37v.67a.47.47,0,0,1-.16.35.49.49,0,0,1-.36.15H166.41V169.5H179a.45.45,0,0,1,.36.16.46.46,0,0,1,.15.34v.67a.51.51,0,0,1-.16.37.49.49,0,0,1-.35.15H166.41v11.63h14.47a.49.49,0,0,1,.36.15.51.51,0,0,1,.16.38V184a.49.49,0,0,1-.16.37.46.46,0,0,1-.36.16h-15.8a.49.49,0,0,1-.35-.16A.48.48,0,0,1,164.56,184Z"/><path class="cls-1" d="M203.48,184V157.44a.53.53,0,0,1,.52-.52h8.47a8.92,8.92,0,0,1,7.7,4.39,8.52,8.52,0,0,1,1.2,4.41,8.82,8.82,0,0,1-1.2,4.5,9,9,0,0,1-3.24,3.27,8.6,8.6,0,0,1-4.43,1.21h-7.17V184a.45.45,0,0,1-.18.36.6.6,0,0,1-.44.16H204a.5.5,0,0,1-.36-.16A.5.5,0,0,1,203.48,184Zm1.85-11.1h7.06a6.85,6.85,0,0,0,5-2.12,7,7,0,0,0,2.11-5.09,6.6,6.6,0,0,0-2.12-4.93,7.06,7.06,0,0,0-5.06-2h-7Z"/><path class="cls-1" d="M240.47,163.49a6.38,6.38,0,0,1,.29-1.86,6.74,6.74,0,0,1,1-1.87,7.36,7.36,0,0,1,1.62-1.63,8,8,0,0,1,2.43-1.15,11.05,11.05,0,0,1,3.25-.45,11.6,11.6,0,0,1,2.19.21,11.06,11.06,0,0,1,1.9.5c.53.19,1,.39,1.43.59a9.46,9.46,0,0,1,1,.51l.31.19a.58.58,0,0,1,.15.83,4.45,4.45,0,0,0-.33.52.59.59,0,0,1-.87.19l-.36-.23c-.14-.09-.43-.24-.85-.45a12.82,12.82,0,0,0-1.27-.55,12.67,12.67,0,0,0-1.54-.42,8.45,8.45,0,0,0-1.76-.19,8.83,8.83,0,0,0-3.07.49,5.24,5.24,0,0,0-2.08,1.28,5.69,5.69,0,0,0-1.12,1.67,4.52,4.52,0,0,0-.38,1.78,5.09,5.09,0,0,0,.44,2.17,4.64,4.64,0,0,0,1.36,1.66,10.2,10.2,0,0,0,2,1.23,28.12,28.12,0,0,0,2.72,1.05c1.18.4,2.19.77,3,1.13a19.25,19.25,0,0,1,2.42,1.27,8.23,8.23,0,0,1,1.89,1.54,6.21,6.21,0,0,1,1.12,1.91,7.07,7.07,0,0,1,.41,2.45,5.86,5.86,0,0,1-1.2,3.56,8.26,8.26,0,0,1-3.19,2.56,10,10,0,0,1-4.24.91,11.72,11.72,0,0,1-2.63-.3,12.78,12.78,0,0,1-2.2-.69,12.39,12.39,0,0,1-1.73-.91c-.55-.35-1-.62-1.19-.81a7.06,7.06,0,0,1-.62-.53.62.62,0,0,1-.26-.47.66.66,0,0,1,.14-.36l.38-.48c.3-.35.59-.4.88-.16s.38.32.54.47.51.38,1,.73a12.7,12.7,0,0,0,1.54.87,11.26,11.26,0,0,0,1.9.65,9,9,0,0,0,2.26.3,7.26,7.26,0,0,0,4.66-1.56,4.6,4.6,0,0,0,2-3.7,5.11,5.11,0,0,0-.5-2.29,4.92,4.92,0,0,0-1.56-1.78,14.29,14.29,0,0,0-2.36-1.37,32.65,32.65,0,0,0-3.23-1.25c-1-.36-1.86-.69-2.56-1a15.11,15.11,0,0,1-2.08-1.12,6.69,6.69,0,0,1-1.64-1.42,6.14,6.14,0,0,1-1-1.83A7.45,7.45,0,0,1,240.47,163.49Z"/><path class="cls-1" d="M275.06,184l12.14-27.42a.49.49,0,0,1,.48-.27h.12a.51.51,0,0,1,.5.27l12,27.42a.5.5,0,0,1,0,.19c0,.19-.13.29-.38.29h-1a.57.57,0,0,1-.54-.35l-3.19-7.29H280.14L277,184.16a.6.6,0,0,1-.56.35h-1.1c-.22,0-.33-.09-.33-.25A1.11,1.11,0,0,1,275.06,184Zm5.79-8.66h13.68L287.8,159.5h-.08Z"/><path class="cls-1" d="M320.1,184V157.51a.6.6,0,0,1,.16-.42.56.56,0,0,1,.42-.17h.7a.52.52,0,0,1,.4.16.57.57,0,0,1,.16.43v12.18l13.41-12.48a1.14,1.14,0,0,1,.79-.29h1.1c.21,0,.33.08.37.25a.42.42,0,0,1-.14.42l-13.7,12.74,14.14,13.5a.31.31,0,0,1,.14.24.41.41,0,0,1,0,.17.43.43,0,0,1-.46.27H336.3a1.2,1.2,0,0,1-.87-.39L321.94,171v13c0,.34-.18.52-.56.52h-.77a.48.48,0,0,1-.37-.15A.48.48,0,0,1,320.1,184Z"/><path class="cls-1" d="M358.55,184V157.44a.5.5,0,0,1,.17-.37.5.5,0,0,1,.35-.15h15.8a.49.49,0,0,1,.36.15.49.49,0,0,1,.16.37v.67a.47.47,0,0,1-.16.35.49.49,0,0,1-.36.15H360.4V169.5h12.54a.46.46,0,0,1,.36.16.45.45,0,0,1,.14.34v.67a.5.5,0,0,1-.15.37.49.49,0,0,1-.35.15H360.4v11.63h14.47a.49.49,0,0,1,.36.15.51.51,0,0,1,.16.38V184a.49.49,0,0,1-.16.37.46.46,0,0,1-.36.16h-15.8a.57.57,0,0,1-.52-.52Z"/><path class="cls-1" d="M421.38,184V157.44a.49.49,0,0,1,.16-.37.53.53,0,0,1,.36-.15h8.47a8.92,8.92,0,0,1,7.7,4.39,8.52,8.52,0,0,1,1.2,4.41,8.82,8.82,0,0,1-1.2,4.5,9,9,0,0,1-3.24,3.27,8.6,8.6,0,0,1-4.43,1.21h-7.17V184a.45.45,0,0,1-.18.36.6.6,0,0,1-.44.16h-.71a.5.5,0,0,1-.36-.16A.46.46,0,0,1,421.38,184Zm1.85-11.1h7.06a6.85,6.85,0,0,0,5-2.12,7,7,0,0,0,2.11-5.09,6.6,6.6,0,0,0-2.12-4.93,7.06,7.06,0,0,0-5.06-2h-7Z"/><path class="cls-1" d="M460.14,184V157.44a.51.51,0,0,1,.15-.37.48.48,0,0,1,.37-.15h9.75a8.66,8.66,0,0,1,6.18,2.43,7.93,7.93,0,0,1,2.56,6,8.09,8.09,0,0,1-1.81,5.22,9,9,0,0,1-4.66,3.06l5.73,10.17a.5.5,0,0,1,.08.47.33.33,0,0,1-.34.24h-1.21a.58.58,0,0,1-.56-.35l-5.7-10.29c-.35,0-.84,0-1.47,0H462V184a.44.44,0,0,1-.17.36.59.59,0,0,1-.43.16h-.7a.49.49,0,0,1-.35-.16A.5.5,0,0,1,460.14,184ZM462,172.21h8.34a6.8,6.8,0,0,0,4.92-2,6.53,6.53,0,0,0,2.06-4.89,6.18,6.18,0,0,0-2.07-4.71,7.06,7.06,0,0,0-5-1.91H462Z"/><path class="cls-1" d="M501.12,184V157.44a.49.49,0,0,1,.16-.37.53.53,0,0,1,.36-.15h15.79a.5.5,0,0,1,.37.15.51.51,0,0,1,.15.37v.67a.5.5,0,0,1-.15.35.51.51,0,0,1-.37.15H503V169.5h12.54a.46.46,0,0,1,.36.16.49.49,0,0,1,.14.34v.67a.51.51,0,0,1-.5.52H503v11.63h14.46a.51.51,0,0,1,.37.15.54.54,0,0,1,.15.38V184a.51.51,0,0,1-.15.37.47.47,0,0,1-.37.16H501.64a.5.5,0,0,1-.36-.16A.46.46,0,0,1,501.12,184Z"/><path class="cls-1" d="M538.27,163.49a6.06,6.06,0,0,1,.29-1.86,6.44,6.44,0,0,1,.94-1.87,7.36,7.36,0,0,1,1.62-1.63,8,8,0,0,1,2.44-1.15,11,11,0,0,1,3.24-.45,11.6,11.6,0,0,1,2.19.21,10.82,10.82,0,0,1,1.9.5c.53.19,1,.39,1.43.59a9.46,9.46,0,0,1,1,.51l.31.19a.56.56,0,0,1,.15.83,4.45,4.45,0,0,0-.33.52.58.58,0,0,1-.87.19l-.36-.23c-.14-.09-.42-.24-.85-.45s-.84-.39-1.26-.55a12.88,12.88,0,0,0-1.55-.42,8.45,8.45,0,0,0-1.76-.19,8.77,8.77,0,0,0-3.06.49,5.28,5.28,0,0,0-2.09,1.28,5.9,5.9,0,0,0-1.12,1.67,4.52,4.52,0,0,0-.38,1.78,5,5,0,0,0,.45,2.17,4.51,4.51,0,0,0,1.35,1.66,10,10,0,0,0,2,1.23,26.21,26.21,0,0,0,2.72,1.05c1.17.4,2.18.77,3,1.13a19.25,19.25,0,0,1,2.42,1.27A8.23,8.23,0,0,1,554,173.5a6.21,6.21,0,0,1,1.12,1.91,6.85,6.85,0,0,1,.42,2.45,5.87,5.87,0,0,1-1.21,3.56,8.26,8.26,0,0,1-3.19,2.56,10,10,0,0,1-4.23.91,11.75,11.75,0,0,1-2.64-.3,12.78,12.78,0,0,1-2.2-.69,13,13,0,0,1-1.73-.91,13.41,13.41,0,0,1-1.18-.81,7.28,7.28,0,0,1-.63-.53.6.6,0,0,1-.25-.47.64.64,0,0,1,.13-.36l.38-.48c.3-.35.59-.4.88-.16l.55.47c.16.14.51.38,1,.73a13.51,13.51,0,0,0,1.54.87,11.09,11.09,0,0,0,1.91.65,8.82,8.82,0,0,0,2.25.3,7.26,7.26,0,0,0,4.66-1.56,4.57,4.57,0,0,0,2-3.7,5,5,0,0,0-.5-2.29,4.92,4.92,0,0,0-1.56-1.78,13.89,13.89,0,0,0-2.36-1.37,32.36,32.36,0,0,0-3.22-1.25c-1-.36-1.87-.69-2.57-1a15.11,15.11,0,0,1-2.08-1.12,6.88,6.88,0,0,1-1.64-1.42,6.14,6.14,0,0,1-1-1.83A7.45,7.45,0,0,1,538.27,163.49Z"/><path class="cls-1" d="M576.8,184V157.44a.49.49,0,0,1,.16-.37.53.53,0,0,1,.36-.15h15.79a.5.5,0,0,1,.37.15.51.51,0,0,1,.15.37v.67a.5.5,0,0,1-.15.35.51.51,0,0,1-.37.15H578.65V169.5h12.54a.46.46,0,0,1,.36.16.49.49,0,0,1,.14.34v.67a.51.51,0,0,1-.5.52H578.65v11.63h14.46a.51.51,0,0,1,.37.15.54.54,0,0,1,.15.38V184a.51.51,0,0,1-.15.37.47.47,0,0,1-.37.16H577.32a.5.5,0,0,1-.36-.16A.46.46,0,0,1,576.8,184Z"/><path class="cls-1" d="M615.72,184V157.44a.5.5,0,0,1,.14-.37.5.5,0,0,1,.37-.15H626a8.65,8.65,0,0,1,6.18,2.43,7.93,7.93,0,0,1,2.56,6,8.13,8.13,0,0,1-1.8,5.22,9,9,0,0,1-4.67,3.06L634,183.8a.53.53,0,0,1,.07.47.32.32,0,0,1-.34.24h-1.21a.59.59,0,0,1-.56-.35l-5.7-10.29c-.35,0-.83,0-1.46,0h-7.27V184a.44.44,0,0,1-.17.36.57.57,0,0,1-.43.16h-.7a.45.45,0,0,1-.34-.16A.46.46,0,0,1,615.72,184Zm1.84-11.78h8.34a6.84,6.84,0,0,0,4.93-2,6.55,6.55,0,0,0,2-4.89,6.2,6.2,0,0,0-2.06-4.71,7.08,7.08,0,0,0-5-1.91h-8.29Z"/><path class="cls-1" d="M652.71,157.07q.07-.15.36-.15h1.06a.41.41,0,0,1,.43.29l10.64,24.47h.09l10.76-24.47a.39.39,0,0,1,.42-.29h1a.47.47,0,0,1,.39.15.22.22,0,0,1,0,.18.8.8,0,0,1,0,.23l-12.11,27.07a.46.46,0,0,1-.46.34h-.21a.42.42,0,0,1-.42-.34l-11.91-27.11a.6.6,0,0,1-.06-.23A.17.17,0,0,1,652.71,157.07Z"/><path class="cls-1" d="M692.3,184l12.14-27.42a.49.49,0,0,1,.48-.27H705a.51.51,0,0,1,.5.27l12,27.42a.5.5,0,0,1,0,.19c0,.19-.13.29-.39.29h-1a.56.56,0,0,1-.54-.35l-3.2-7.29H697.38l-3.14,7.29a.58.58,0,0,1-.56.35h-1.09c-.22,0-.33-.09-.33-.25A.7.7,0,0,1,692.3,184Zm5.79-8.66h13.68L705,159.5H705Z"/><path class="cls-1" d="M731.93,158v-.59a.5.5,0,0,1,.15-.38.57.57,0,0,1,.37-.14H749.4a.46.46,0,0,1,.36.15.55.55,0,0,1,.14.37v.67a.52.52,0,0,1-.14.36.49.49,0,0,1-.36.14h-7.58V184a.45.45,0,0,1-.18.36.6.6,0,0,1-.44.16h-.71a.5.5,0,0,1-.37-.16A.49.49,0,0,1,740,184V158.61h-7.52C732.1,158.61,731.93,158.42,731.93,158Z"/><path class="cls-1" d="M769.75,184V157.44a.49.49,0,0,1,.16-.37.5.5,0,0,1,.35-.15h.85a.5.5,0,0,1,.34.15.56.56,0,0,1,.15.37V184a.49.49,0,0,1-.16.37.53.53,0,0,1-.37.15h-.81a.47.47,0,0,1-.35-.16A.46.46,0,0,1,769.75,184Z"/><path class="cls-1" d="M793.39,170.75a14.35,14.35,0,0,1,4.13-10.08,14.32,14.32,0,0,1,10.05-4.14,14.2,14.2,0,0,1,5.56,1.12,13.89,13.89,0,0,1,4.53,3,14.17,14.17,0,0,1,3,4.54,14,14,0,0,1-7.54,18.58,14.36,14.36,0,0,1-5.56,1.1,14.21,14.21,0,0,1-5.53-1.1,14,14,0,0,1-8.65-13Zm3.4-6.28a12.35,12.35,0,0,0-1.67,6.28,12.52,12.52,0,1,0,1.67-6.28Z"/><path class="cls-1" d="M843.52,184V157.05a.45.45,0,0,1,.18-.37.63.63,0,0,1,.41-.15h.66l18.92,24.63h0V157.44a.51.51,0,0,1,.15-.37.53.53,0,0,1,.36-.15h.8a.54.54,0,0,1,.38.15.51.51,0,0,1,.15.37v26.95a.42.42,0,0,1-.19.38.83.83,0,0,1-.44.12h-.51q-.27,0-19.14-24.85h0v24a.46.46,0,0,1-.15.36.44.44,0,0,1-.33.16H844a.49.49,0,0,1-.35-.16A.5.5,0,0,1,843.52,184Z"/><path class="cls-1" d="M59.59,68.89q6.64,5.46,6.64,12.86,0,10.13-8,15.63t-22.11,5.5c-2.11,0-3.89,0-5.34-.11q-7.18-.21-14-.21-11.22,0-16.78.32V100.7a18.49,18.49,0,0,0,5.28-.87,3.75,3.75,0,0,0,2.29-2.5,21.39,21.39,0,0,0,.6-6v-54a21.35,21.35,0,0,0-.6-6,3.75,3.75,0,0,0-2.29-2.5A18.78,18.78,0,0,0,0,27.93V25.76q5.55.31,16.56.32L28.65,26c1.45-.07,3.12-.11,5-.11q13.08,0,20,4.69T60.57,43q0,6.31-5.5,11.76T38.78,62.14v.22Q52.94,63.44,59.59,68.89ZM27.94,28.7A4.19,4.19,0,0,0,26,31.42a23.24,23.24,0,0,0-.55,5.88V61.92h4.69q7.08,0,9.91-4.84t2.83-12.91q0-8.18-2.56-12.2t-8.11-4A9.17,9.17,0,0,0,27.94,28.7ZM48.15,81.31q0-8.59-4.36-13.07T30.07,63.77H25.49V91.33A21.94,21.94,0,0,0,26,97.11a3.81,3.81,0,0,0,2.12,2.56,12.53,12.53,0,0,0,4.85.71Q48.15,100.38,48.15,81.31Z"/><path class="cls-1" d="M131.92,102.88q-7.08-.33-23.86-.32-22.44,0-33.77.32V100.7a18.32,18.32,0,0,0,5.34-.87,3.76,3.76,0,0,0,2.23-2.5,21.39,21.39,0,0,0,.6-6V48.2a21.31,21.31,0,0,0-.6-6,3.78,3.78,0,0,0-2.28-2.51,18.64,18.64,0,0,0-5.29-.87V36.65q11.34.33,33.77.33,15.25,0,21.68-.33A126.61,126.61,0,0,0,129,49.72a54.42,54.42,0,0,0,.33,6.76H126.8q-1.64-9.37-5.66-13.35t-11.12-4h-4a13.63,13.63,0,0,0-4.24.49,3.24,3.24,0,0,0-2,2,13.12,13.12,0,0,0-.6,4.63V68.46h5.12a8.75,8.75,0,0,0,7.57-3.54,20,20,0,0,0,3.43-8.23h2.51c-.22,2.47-.33,5.31-.33,8.5v4.36q0,4.9.66,12.85h-2.51A17.29,17.29,0,0,0,112.15,74q-2.67-3.31-7.9-3.32H99.13V93.3a13.09,13.09,0,0,0,.6,4.62,3.26,3.26,0,0,0,2,2,14,14,0,0,0,4.24.49h4.69q7.72,0,12.14-4.47t6.16-15h2.5c-.21,2-.32,4.65-.32,7.84Q131.16,94.93,131.92,102.88Z"/><path class="cls-1" d="M207.19,100.7v2.18q-5.22-.33-14.27-.32-11.65,0-17.21.32V100.7a13.47,13.47,0,0,0,5.34-1.14,3.24,3.24,0,0,0,1.74-3.11,12,12,0,0,0-1.41-4.9l-5.45-12.42H153.05l-1.3,3q-3.06,7.19-3.05,11.22a6.27,6.27,0,0,0,2.39,5.44q2.4,1.76,7.08,2v2.18q-6.21-.33-12.52-.32a87,87,0,0,0-8.83.32V100.7a8.61,8.61,0,0,0,4.85-3.32,39.8,39.8,0,0,0,4.74-8.33l23-52.62a22.3,22.3,0,0,0,2.51.11,20.3,20.3,0,0,0,2.5-.11l25.93,57.3Q203.5,100.49,207.19,100.7ZM175,77,164.49,53.1,154,77Z"/><path class="cls-1" d="M255.23,36.92a36,36,0,0,1,8.07,5.29,3.5,3.5,0,0,0,2.07,1q2.17,0,2.83-6.54h2.5q-.43,6.54-.43,22.88h-2.51A46.74,46.74,0,0,0,265.58,51a22.15,22.15,0,0,0-3.26-5.39A23.38,23.38,0,0,0,255.4,40a17.17,17.17,0,0,0-8-2,15.53,15.53,0,0,0-10.46,3.86A24.81,24.81,0,0,0,230,52.88,53,53,0,0,0,227.56,70a49,49,0,0,0,2.67,17.16q2.67,7.14,7.36,10.78a16.7,16.7,0,0,0,10.56,3.66,18.72,18.72,0,0,0,8.34-2,20.91,20.91,0,0,0,7-5.61,17.71,17.71,0,0,0,3.16-5.88,63.11,63.11,0,0,0,1.85-9.15H271q0,17.1.44,24H269a18.64,18.64,0,0,0-1-5c-.44-1-1-1.57-1.74-1.57a3.9,3.9,0,0,0-2.18,1,33.81,33.81,0,0,1-8.39,5.23,26.77,26.77,0,0,1-10.46,1.85,40,40,0,0,1-18.3-4,29.29,29.29,0,0,1-12.36-11.66q-4.41-7.62-4.41-18.3A36.62,36.62,0,0,1,214.71,52a32.21,32.21,0,0,1,12.47-12.47A35.84,35.84,0,0,1,245,35.12,24.7,24.7,0,0,1,255.23,36.92Z"/><path class="cls-1" d="M338.79,39.1a29.42,29.42,0,0,1,12.85,11.66q4.58,7.68,4.58,18.35a36,36,0,0,1-4.69,18.47A32.26,32.26,0,0,1,338.46,100a40.34,40.34,0,0,1-19.06,4.41,44,44,0,0,1-19.28-4,29.44,29.44,0,0,1-12.86-11.66q-4.58-7.67-4.57-18.35A35.94,35.94,0,0,1,287.37,52a32.17,32.17,0,0,1,13.07-12.41,40.24,40.24,0,0,1,19.07-4.42A44.09,44.09,0,0,1,338.79,39.1ZM309.1,41.28a27.38,27.38,0,0,0-6.64,11.65A57,57,0,0,0,300.12,70a51.4,51.4,0,0,0,2.61,17.11q2.61,7.41,7.14,11.38a14.74,14.74,0,0,0,10,4,13.85,13.85,0,0,0,10-4.2,27.43,27.43,0,0,0,6.65-11.65,57,57,0,0,0,2.34-17,51.14,51.14,0,0,0-2.62-17.11A26.59,26.59,0,0,0,329,41.06a14.79,14.79,0,0,0-10-4A13.85,13.85,0,0,0,309.1,41.28Z"/><path class="cls-1" d="M432.91,38.83a14,14,0,0,0-5.29,1.63A5.52,5.52,0,0,0,425.34,44a32.57,32.57,0,0,0-.6,7.3V103.1L421.8,103l-2.84.11L375.39,49V88.28a22.94,22.94,0,0,0,.87,7.25,6,6,0,0,0,3.16,3.54,23.79,23.79,0,0,0,7.19,1.63v2.18q-4.91-.33-12.42-.32c-4,0-7.15.1-9.48.32V100.7A13.87,13.87,0,0,0,370,99.07a5.57,5.57,0,0,0,2.29-3.49,33.25,33.25,0,0,0,.59-7.3V48.2a21.78,21.78,0,0,0-.59-6A3.79,3.79,0,0,0,370,39.7a18.64,18.64,0,0,0-5.29-.87V36.65q3.5.33,9.48.33,7.74,0,13.29-.33l34.75,43.14V51.25a22.94,22.94,0,0,0-.87-7.25,6,6,0,0,0-3.21-3.54A24.59,24.59,0,0,0,411,38.83V36.65q4.8.33,12.42.33,6.1,0,9.48-.33Z"/><path class="cls-1" d="M578.73,31.45q-4.2,5.32-12.8,8.93L556.83,44l-8.94,3.44q9.61,2.58,13.92,8.93a23.6,23.6,0,0,1,4.29,13.41,34,34,0,0,1-6.27,19.84q-6.27,9-18.3,14.35T513,109.29a79.5,79.5,0,0,1-26.89-4.38q-12.3-4.39-19.59-12.55a27.59,27.59,0,0,1-7.31-19q0-10.82,5.07-18.21a38.6,38.6,0,0,1,11.52-11.34,43.93,43.93,0,0,1,11.77-5.33q-8.43-2.75-12.89-7.56a15.91,15.91,0,0,1-4.47-11.17q0-8.42,7.73-14.09T499.43,0q11,0,17.7,5.16a18.48,18.48,0,0,1,4.73,5.75,13.48,13.48,0,0,1,1.63,6.1,8.26,8.26,0,0,1-2.92,6.62,10,10,0,0,1-6.7,2.49,9.37,9.37,0,0,1-6.36-2.23,8,8,0,0,1-2.58-6.36A9.21,9.21,0,0,1,507.51,11,9.13,9.13,0,0,1,514,8.08q-.87-2.24-4.38-3.87a19.67,19.67,0,0,0-8.34-1.63q-8.93,0-14.6,5a16.17,16.17,0,0,0-5.67,12.72,22.46,22.46,0,0,0,1.89,9.79,19.62,19.62,0,0,0,6.87,7.39,61.46,61.46,0,0,1,10.65-1,9.68,9.68,0,0,1,5,1.12,3.26,3.26,0,0,1,1.89,2.83c0,2.18-1.61,3.27-4.81,3.27a17.11,17.11,0,0,1-5.67-1q-2.92-1-6.88-2.75-18.9,6.36-18.9,26.29a25.85,25.85,0,0,0,5.76,16.75q5.75,7.14,15.89,10.91a65.09,65.09,0,0,0,22.86,3.78A75.6,75.6,0,0,0,540.07,94q10.57-3.6,16.33-10a21.86,21.86,0,0,0,5.75-15,22.74,22.74,0,0,0-3.52-11.86q-3.52-5.84-14-8.42l-17.7,6.7a46.24,46.24,0,0,0-12.2,6.44,11.38,11.38,0,0,0-.86,17.36,12.53,12.53,0,0,0,8.59,3.18,21,21,0,0,0,6.7-1c2.06-.69,3.27-1.61,3.61-2.75A12.11,12.11,0,0,1,527,75.78a7.64,7.64,0,0,1-2.32-6,8.34,8.34,0,0,1,2.67-6.53,9.69,9.69,0,0,1,6.78-2.41,8.78,8.78,0,0,1,6.62,2.58,9.24,9.24,0,0,1,2.49,6.7q0,6.87-6.44,10.82a26,26,0,0,1-13.84,4q-7.56,0-11.94-4.13t-4.38-11.85q0-17.53,23.71-25.95l6.19-2.23q20.1-6.7,28.87-11.17,7.22-3.61,10.14-7A11.45,11.45,0,0,0,578.48,15a11.08,11.08,0,0,0-4.38-9,16.88,16.88,0,0,0-10.92-3.52,8.13,8.13,0,0,0-3,.51,3,3,0,0,0-1.64,1.2,7.68,7.68,0,0,1,3.53,3.36A9.3,9.3,0,0,1,563.36,12,7.66,7.66,0,0,1,560.52,18a9.72,9.72,0,0,1-6.62,2.49,9.88,9.88,0,0,1-6.61-2.24,7.41,7.41,0,0,1-2.66-6,9.7,9.7,0,0,1,5.75-9.37A30.36,30.36,0,0,1,563.87,0a19.57,19.57,0,0,1,13.66,4.9q5.41,4.89,5.41,13.49A20.4,20.4,0,0,1,578.73,31.45Z"/><path class="cls-1" d="M667.13,68.89q6.64,5.46,6.64,12.86,0,10.13-7.95,15.63t-22.11,5.5c-2.11,0-3.89,0-5.34-.11q-7.18-.21-14-.21-11.24,0-16.78.32V100.7a18.49,18.49,0,0,0,5.28-.87,3.75,3.75,0,0,0,2.29-2.5,21.39,21.39,0,0,0,.6-6v-54a21.35,21.35,0,0,0-.6-6,3.75,3.75,0,0,0-2.29-2.5,18.78,18.78,0,0,0-5.28-.88V25.76q5.55.31,16.56.32L636.19,26c1.45-.07,3.12-.11,5-.11q13.08,0,20,4.69T668.11,43q0,6.31-5.5,11.76t-16.29,7.41v.22Q660.48,63.44,667.13,68.89ZM635.48,28.7a4.19,4.19,0,0,0-1.9,2.72A23.24,23.24,0,0,0,633,37.3V61.92h4.68q7.08,0,9.92-4.84t2.83-12.91q0-8.18-2.56-12.2t-8.12-4A9.15,9.15,0,0,0,635.48,28.7Zm20.21,52.61q0-8.59-4.36-13.07t-13.72-4.47H633V91.33a21.94,21.94,0,0,0,.55,5.78,3.81,3.81,0,0,0,2.12,2.56,12.53,12.53,0,0,0,4.85.71Q655.69,100.38,655.69,81.31Z"/><path class="cls-1" d="M739.46,102.88q-7.08-.33-23.86-.32-22.44,0-33.77.32V100.7a18.32,18.32,0,0,0,5.34-.87,3.76,3.76,0,0,0,2.23-2.5,21.39,21.39,0,0,0,.6-6V48.2a21.31,21.31,0,0,0-.6-6,3.78,3.78,0,0,0-2.28-2.51,18.64,18.64,0,0,0-5.29-.87V36.65q11.32.33,33.77.33,15.25,0,21.68-.33a126.61,126.61,0,0,0-.76,13.07,56.81,56.81,0,0,0,.32,6.76h-2.5q-1.64-9.37-5.67-13.35t-11.11-4h-4a13.75,13.75,0,0,0-4.25.49,3.25,3.25,0,0,0-2,2,13.12,13.12,0,0,0-.6,4.63V68.46h5.12a8.75,8.75,0,0,0,7.57-3.54,20,20,0,0,0,3.43-8.23h2.51c-.22,2.47-.33,5.31-.33,8.5v4.36q0,4.9.65,12.85h-2.5A17.29,17.29,0,0,0,719.69,74q-2.67-3.31-7.9-3.32h-5.12V93.3a13.09,13.09,0,0,0,.6,4.62,3.27,3.27,0,0,0,2,2,14.07,14.07,0,0,0,4.25.49h4.69q7.72,0,12.14-4.47t6.16-15H739c-.21,2-.32,4.65-.32,7.84Q738.7,94.93,739.46,102.88Z"/><path class="cls-1" d="M806.89,102.88q-7.08-.33-23.86-.32-22.44,0-33.77.32V100.7a18.32,18.32,0,0,0,5.34-.87,3.76,3.76,0,0,0,2.23-2.5,21.39,21.39,0,0,0,.6-6V48.2a21.31,21.31,0,0,0-.6-6,3.78,3.78,0,0,0-2.28-2.51,18.64,18.64,0,0,0-5.29-.87V36.65Q760.58,37,783,37q15.26,0,21.68-.33A126.61,126.61,0,0,0,804,49.72a56.81,56.81,0,0,0,.32,6.76h-2.5q-1.63-9.37-5.67-13.35t-11.11-4h-4a13.75,13.75,0,0,0-4.25.49,3.25,3.25,0,0,0-2,2,13.12,13.12,0,0,0-.6,4.63V68.46h5.12a8.75,8.75,0,0,0,7.57-3.54,20,20,0,0,0,3.43-8.23h2.51c-.22,2.47-.33,5.31-.33,8.5v4.36q0,4.9.65,12.85h-2.5A17.29,17.29,0,0,0,787.12,74q-2.67-3.31-7.9-3.32H774.1V93.3a13.09,13.09,0,0,0,.6,4.62,3.27,3.27,0,0,0,2,2,14.07,14.07,0,0,0,4.25.49h4.69q7.73,0,12.14-4.47t6.16-15h2.5c-.21,2-.32,4.65-.32,7.84Q806.13,94.93,806.89,102.88Z"/><path class="cls-1" d="M862.77,36.92a35.75,35.75,0,0,1,8.06,5.29,3.55,3.55,0,0,0,2.07,1q2.18,0,2.84-6.54h2.5q-.43,6.54-.44,22.88h-2.5A47.59,47.59,0,0,0,873.12,51a22.52,22.52,0,0,0-3.27-5.39A23.21,23.21,0,0,0,862.94,40a17.17,17.17,0,0,0-8-2,15.51,15.51,0,0,0-10.46,3.86,24.91,24.91,0,0,0-6.92,11.06A53.3,53.3,0,0,0,835.1,70a49,49,0,0,0,2.67,17.16q2.67,7.14,7.35,10.78a16.75,16.75,0,0,0,10.57,3.66,18.68,18.68,0,0,0,8.33-2,20.85,20.85,0,0,0,7-5.61,17.89,17.89,0,0,0,3.16-5.88,64.51,64.51,0,0,0,1.85-9.15h2.51q0,17.1.43,24h-2.5a19.05,19.05,0,0,0-1-5c-.44-1-1-1.57-1.75-1.57a3.9,3.9,0,0,0-2.17,1,33.81,33.81,0,0,1-8.39,5.23,26.77,26.77,0,0,1-10.46,1.85,40,40,0,0,1-18.3-4,29.37,29.37,0,0,1-12.37-11.66q-4.41-7.62-4.41-18.3A36.63,36.63,0,0,1,822.25,52a32.21,32.21,0,0,1,12.47-12.47,35.81,35.81,0,0,1,17.81-4.42A24.74,24.74,0,0,1,862.77,36.92Z"/><path class="cls-1" d="M967,38.83a18.32,18.32,0,0,0-5.34.87,3.81,3.81,0,0,0-2.23,2.51,21.31,21.31,0,0,0-.6,6V91.33a21.39,21.39,0,0,0,.6,6,3.75,3.75,0,0,0,2.29,2.5,18.55,18.55,0,0,0,5.28.87v2.18q-5-.33-15.9-.32t-17.1.32V100.7a18.3,18.3,0,0,0,5.33-.87,3.78,3.78,0,0,0,2.24-2.5,21.78,21.78,0,0,0,.6-6V70.2h-28V91.33a21.39,21.39,0,0,0,.6,6,3.75,3.75,0,0,0,2.29,2.5,18.49,18.49,0,0,0,5.28.87v2.18q-6-.33-17.1-.32-10.68,0-15.91.32V100.7a18.32,18.32,0,0,0,5.34-.87,3.76,3.76,0,0,0,2.23-2.5,21.39,21.39,0,0,0,.6-6V48.2a21.31,21.31,0,0,0-.6-6,3.78,3.78,0,0,0-2.28-2.51,18.64,18.64,0,0,0-5.29-.87V36.65q5.24.33,15.91.33,11.1,0,17.1-.33v2.18a18.32,18.32,0,0,0-5.34.87,3.78,3.78,0,0,0-2.23,2.51,21.31,21.31,0,0,0-.6,6V68h28V48.2a21.69,21.69,0,0,0-.6-6,3.79,3.79,0,0,0-2.29-2.51,18.62,18.62,0,0,0-5.28-.87V36.65q6.09.33,17.1.33t15.9-.33Z"/></g></g></svg>